<?xml version="1.0" standalone="no"?>
<!DOCTYPE svg PUBLIC "-//W3C//DTD SVG 20010904//EN"
 "http://www.w3.org/TR/2001/REC-SVG-20010904/DTD/svg10.dtd">
<svg version="1.0" xmlns="http://www.w3.org/2000/svg"
 width="308.000000pt" height="308.000000pt" viewBox="0 0 308.000000 308.000000"
 preserveAspectRatio="xMidYMid meet">

<g transform="translate(0.000000,308.000000) scale(0.100000,-0.100000)"
fill="#000000" stroke="none">
<path d="M2228 2413 c-40 -35 -297 -275 -413 -384 -27 -27 -60 -56 -71 -66
-12 -10 -86 -79 -165 -153 -79 -74 -177 -167 -219 -206 -41 -38 -118 -110
-170 -160 -52 -49 -133 -122 -180 -163 -81 -70 -246 -223 -445 -411 -50 -47
-112 -104 -138 -128 -54 -49 -56 -72 -7 -94 17 -7 30 -15 30 -18 0 -7 312 -7
325 0 6 3 58 5 117 5 65 0 106 4 105 10 -1 6 4 9 11 7 6 -1 11 4 10 10 -2 7 3
12 10 10 6 -1 11 1 10 5 -2 5 1 9 6 10 5 0 13 8 18 17 5 9 15 13 21 10 7 -4 9
-4 5 1 -10 11 11 37 23 29 5 -3 8 -2 7 3 -2 4 2 10 7 12 6 2 16 12 23 23 7 10
18 15 24 12 6 -4 8 -3 5 3 -9 14 51 66 65 57 6 -4 8 -3 5 3 -7 11 18 36 46 46
9 4 17 13 17 21 0 10 6 13 17 9 10 -4 14 -2 10 4 -7 12 44 26 54 15 4 -4 42
-72 84 -152 43 -80 83 -149 89 -153 6 -4 92 -6 191 -3 99 3 233 6 298 6 76 0
117 4 117 11 0 6 -22 48 -50 95 -27 47 -50 87 -50 89 0 4 -113 204 -200 355
-60 103 -81 150 -70 150 6 0 9 4 5 10 -3 5 7 17 22 27 15 10 39 30 54 46 14
15 29 27 33 27 4 0 18 12 31 26 14 15 29 23 36 18 7 -4 9 -3 6 3 -7 12 139
148 159 148 7 0 19 7 26 15 11 12 10 12 -7 0 -20 -15 -20 -15 -1 8 11 12 25
21 32 18 6 -2 11 3 10 11 0 9 6 18 14 20 13 4 13 3 0 -7 -10 -8 -11 -10 -2 -8
8 2 13 8 13 13 0 12 39 55 51 55 4 0 21 14 37 31 17 17 35 28 41 24 6 -3 9 -2
8 3 -3 10 40 54 127 127 32 28 74 64 94 82 19 17 39 29 43 27 5 -3 7 -2 6 3
-2 5 25 35 60 67 61 57 62 59 61 110 -1 84 -29 138 -89 175 -32 19 -49 21
-217 21 l-183 0 -42 -37z m-848 -1437 c0 -2 -7 -7 -16 -10 -8 -3 -12 -2 -9 4
6 10 25 14 25 6z"/>
<path d="M646 2403 c-3 -10 -26 -135 -51 -278 -25 -143 -62 -345 -82 -448 -19
-103 -32 -191 -29 -195 9 -9 554 0 560 10 1 1 12 57 25 123 12 66 38 197 56
290 53 269 84 437 87 475 l3 35 -282 3 c-262 2 -282 1 -287 -15z"/>
</g>
</svg>
